<svg viewBox="0 0 325 325" fill="none" aria-hidden="true"><mask id=":R36la:" style="mask-type:alpha" maskUnits="userSpaceOnUse" x="0" y="0" width="251" height="243"><path fill-rule="evenodd" clip-rule="evenodd" d="M251 0H0V31.4017C0 31.1129 0.040074 30.8322 0.112213 30.5595C0.125747 30.5076 0.149435 30.4582 0.173277 30.4085C0.191797 30.3699 0.210409 30.3311 0.224426 30.2908C0.231968 30.2697 0.239447 30.2485 0.246934 30.2273C0.299128 30.0793 0.351724 29.9303 0.428833 29.7935C0.466827 29.7276 0.516029 29.6697 0.565307 29.6117C0.593998 29.578 0.622716 29.5442 0.649261 29.5088C0.669664 29.4804 0.689674 29.4518 0.709638 29.4232C0.779873 29.3228 0.849549 29.2232 0.933807 29.1358C0.993976 29.0756 1.0661 29.0256 1.13792 28.9759C1.17612 28.9494 1.21424 28.923 1.25043 28.8952C1.28071 28.8701 1.31018 28.8445 1.33953 28.8189C1.42285 28.7465 1.50529 28.6748 1.60309 28.6184L40.1214 6.4286C40.6091 6.14779 41.1619 6 41.7245 6C42.2872 6 42.8399 6.14779 43.3276 6.4286L81.8419 28.6184H81.8499C81.9416 28.6757 82.0229 28.7433 82.1043 28.8108C82.1369 28.8378 82.1694 28.8648 82.2026 28.8912C82.2374 28.9179 82.2734 28.9437 82.3095 28.9696C82.3816 29.0213 82.4538 29.073 82.5152 29.1318C82.5935 29.2129 82.6561 29.3017 82.7195 29.3916C82.747 29.4307 82.7747 29.4699 82.8038 29.5088C82.8305 29.5465 82.8609 29.5824 82.8914 29.6184C82.9387 29.6742 82.9861 29.7301 83.0202 29.7935C83.0922 29.9189 83.1398 30.0491 83.1878 30.1805C83.2012 30.2172 83.2146 30.254 83.2286 30.2908C83.2422 30.33 83.2602 30.3677 83.2781 30.4055C83.3025 30.4567 83.327 30.5081 83.3408 30.5635C83.4146 30.8368 83.4523 31.1186 83.453 31.4017V113.853L115.547 95.3604V53.2105C115.547 52.9298 115.587 52.6451 115.659 52.3764C115.675 52.323 115.698 52.2733 115.721 52.2238C115.739 52.1842 115.757 52.1447 115.771 52.1037C115.784 52.07 115.797 52.0361 115.809 52.0022C115.859 51.8669 115.909 51.7315 115.98 51.6064C116.016 51.544 116.062 51.4888 116.107 51.4339C116.138 51.397 116.169 51.3603 116.196 51.3216C116.224 51.2844 116.251 51.2469 116.277 51.2096C116.342 51.1183 116.405 51.0284 116.485 50.9487C116.546 50.8872 116.618 50.8364 116.691 50.7856C116.727 50.7602 116.763 50.7348 116.797 50.708C116.835 50.6783 116.87 50.6478 116.905 50.6176C116.984 50.55 117.061 50.484 117.15 50.4313L155.672 28.2415C156.16 27.9603 156.713 27.8122 157.276 27.8122C157.838 27.8122 158.391 27.9603 158.879 28.2415L197.393 50.4313C197.486 50.4863 197.565 50.5508 197.644 50.6157C197.68 50.6453 197.716 50.6751 197.754 50.704C197.791 50.7337 197.83 50.7623 197.869 50.7909C197.936 50.8398 198.004 50.889 198.062 50.9446C198.14 51.0257 198.203 51.1145 198.266 51.2044C198.294 51.2435 198.322 51.2827 198.351 51.3216C198.376 51.3552 198.403 51.3872 198.43 51.4192C198.48 51.479 198.531 51.5384 198.567 51.6064C198.638 51.7272 198.686 51.8577 198.733 51.9885C198.747 52.0269 198.761 52.0654 198.776 52.1037C198.789 52.1378 198.804 52.1708 198.82 52.2038C198.846 52.2599 198.873 52.3157 198.888 52.3764C198.962 52.6497 198.999 52.9315 199 53.2146V97.2173C199 97.782 198.851 98.3368 198.568 98.8255C198.285 99.3142 197.879 99.7195 197.389 100.001L160.482 121.264V163.41C160.482 164.557 159.873 165.616 158.879 166.193L81.8379 210.573C81.677 210.664 81.5028 210.726 81.3274 210.787L81.2769 210.805C81.2451 210.816 81.214 210.83 81.1828 210.845C81.1431 210.864 81.103 210.882 81.0604 210.894C80.5219 211.035 79.9558 211.035 79.4173 210.894C79.3636 210.879 79.3129 210.855 79.2625 210.832C79.2301 210.817 79.1977 210.802 79.1648 210.789C79.131 210.777 79.0969 210.765 79.0628 210.753C78.9184 210.702 78.7718 210.651 78.6357 210.573L1.61111 166.193C1.1218 165.912 0.715223 165.506 0.432373 165.018C0.149523 164.529 0.000387706 163.974 0 163.41V243H251V0Z" fill="#6A3D3A"></path></mask><g mask="url(#:R36la:)"><path d="M116.988 128.649H222.358C233.97 128.649 244.339 123.324 251.296 115.012C236.783 96.16 214.005 84 188.376 84C156.993 84 129.871 102.217 116.988 128.649Z" fill="#F0BF1A"></path><path d="M213.428 141.051H112.205C110.132 148.136 109 155.622 109 163.375C109 171.13 110.132 178.616 112.205 185.7H213.428C225.582 185.7 235.752 175.778 235.752 163.375C235.752 150.973 225.831 141.051 213.428 141.051Z" fill="#07A5DE"></path><path d="M251.567 211.394C244.654 203.268 234.368 198.102 222.854 198.102H116.989C129.871 224.534 156.993 242.751 188.375 242.751C214.163 242.751 237.069 230.445 251.567 211.394Z" fill="#3EBEB0"></path><path d="M112.205 141.051C110.132 148.136 109 155.622 109 163.375C109 171.13 110.132 178.616 112.205 185.7H178.453C180.19 179.003 181.182 171.561 181.182 163.375C181.182 155.19 180.19 147.749 178.453 141.051H112.205Z" fill="#231F20"></path><path d="M148.44 94.666C135.045 102.604 123.883 114.51 116.938 128.649H175.477C169.524 115.006 160.098 103.596 148.44 94.666Z" fill="#D7A229"></path><path d="M150.92 233.325C162.33 224.147 171.508 211.993 177.213 198.102H116.938C124.379 212.985 136.285 225.388 150.92 233.325Z" fill="#019B8F"></path></g><path d="M198.888 52.3764C198.962 52.6497 198.999 52.9315 199 53.2146V97.2173C199 97.782 198.851 98.3368 198.568 98.8255C198.285 99.3142 197.878 99.7195 197.389 100.001L160.482 121.264V163.41C160.482 164.557 159.873 165.616 158.879 166.193L81.8379 210.573C81.6616 210.673 81.4692 210.737 81.2768 210.805C81.2047 210.829 81.1366 210.874 81.0604 210.894C80.5219 211.035 79.9558 211.035 79.4173 210.894C79.3291 210.869 79.2489 210.821 79.1648 210.789C78.9884 210.725 78.8041 210.669 78.6357 210.573L1.61111 166.193C1.12179 165.912 0.715223 165.506 0.432373 165.018C0.149522 164.529 0.000387706 163.974 0 163.41L0 31.4017C0 31.1129 0.0400773 30.8322 0.112217 30.5595C0.136263 30.4673 0.192371 30.383 0.224433 30.2908C0.284549 30.1224 0.340657 29.9499 0.428828 29.7935C0.488944 29.6892 0.577114 29.605 0.649253 29.5088C0.741431 29.3804 0.825593 29.2481 0.933802 29.1358C1.02598 29.0436 1.14621 28.9754 1.25041 28.8952C1.36664 28.7989 1.47084 28.6946 1.60309 28.6184L40.1214 6.4286C40.6091 6.14779 41.1619 6 41.7245 6C42.2872 6 42.8399 6.14779 43.3276 6.4286L81.8419 28.6184H81.8499C81.9782 28.6987 82.0864 28.7989 82.2026 28.8912C82.3068 28.9714 82.4231 29.0436 82.5152 29.1318C82.6275 29.2481 82.7076 29.3804 82.8038 29.5088C82.8719 29.605 82.9641 29.6892 83.0202 29.7935C83.1124 29.9539 83.1645 30.1224 83.2286 30.2908C83.2607 30.383 83.3168 30.4673 83.3408 30.5635C83.4146 30.8368 83.4523 31.1186 83.453 31.4017V113.853L115.547 95.3604V53.2105C115.547 52.9298 115.587 52.6451 115.659 52.3764C115.687 52.2801 115.739 52.1959 115.771 52.1037C115.836 51.9352 115.892 51.7628 115.98 51.6064C116.04 51.5021 116.128 51.4179 116.196 51.3216C116.292 51.1933 116.373 51.0609 116.485 50.9487C116.577 50.8564 116.693 50.7882 116.797 50.708C116.918 50.6118 117.022 50.5075 117.15 50.4313L155.672 28.2415C156.16 27.9603 156.713 27.8122 157.276 27.8122C157.838 27.8122 158.391 27.9603 158.879 28.2415L197.393 50.4313C197.529 50.5115 197.633 50.6118 197.754 50.704C197.854 50.7842 197.97 50.8564 198.062 50.9446C198.174 51.0609 198.255 51.1933 198.351 51.3216C198.423 51.4179 198.511 51.5021 198.567 51.6064C198.659 51.7628 198.711 51.9352 198.776 52.1037C198.812 52.1959 198.864 52.2801 198.888 52.3764ZM192.58 95.3604V58.769L179.102 66.5333L160.482 77.2612V113.853L192.584 95.3604H192.58ZM154.065 161.553V124.938L135.75 135.405L83.449 165.275V202.235L154.065 161.553ZM6.42039 36.9562V161.553L77.0286 202.231V165.279L40.1415 144.388L40.1294 144.38L40.1134 144.372C39.9892 144.3 39.885 144.196 39.7687 144.107C39.6685 144.027 39.5523 143.963 39.4642 143.875L39.4561 143.863C39.3519 143.763 39.2798 143.638 39.1916 143.526C39.1115 143.418 39.0153 143.325 38.9512 143.213L38.9472 143.201C38.875 143.081 38.8309 142.936 38.7788 142.8C38.7267 142.68 38.6586 142.567 38.6265 142.439C38.5865 142.287 38.5784 142.122 38.5624 141.966C38.5464 141.846 38.5143 141.725 38.5143 141.605V55.4484L19.8984 44.7164L6.42039 36.9562ZM41.7285 12.9175L9.6386 31.4017L41.7205 49.8859L73.8064 31.3977L41.7205 12.9175H41.7285ZM58.4167 128.274L77.0327 117.55V36.9562L63.5546 44.7204L44.9347 55.4484V136.042L58.4167 128.274ZM157.276 34.7304L125.19 53.2146L157.276 71.6987L189.357 53.2105L157.276 34.7304ZM154.065 77.2612L135.445 66.5333L121.967 58.769V95.3604L140.583 106.084L154.065 113.853V77.2612ZM80.2348 159.72L127.298 132.834L150.823 119.399L118.761 100.927L81.8459 122.194L48.201 141.577L80.2348 159.72Z" fill="#FF2D20"></path></svg>
